<svg xmlns:xlink="http://www.w3.org/1999/xlink" width="70" height="61" viewBox="0 0 70 61" fill="none" xmlns="http://www.w3.org/2000/svg"><path fill-rule="evenodd" clip-rule="evenodd" d="M9.80594 48.4056C9.25486 48.4056 8.85904 48.7216 8.53206 49.2125L5.55559 53.5385L2.63113 49.2473C2.30454 48.7568 1.92593 48.4234 1.32398 48.4234C0.584739 48.4234 0 49.0017 0 49.7196C0 50.1052 0.137676 50.4209 0.32698 50.6831L4.21517 56.0609V59.546C4.21517 60.2995 4.79991 60.8952 5.53915 60.8952C6.27954 60.8952 6.86466 60.2995 6.86466 59.546V56.0083L10.7532 50.6657C10.9234 50.4209 11.0967 50.0874 11.0967 49.7196C11.0967 48.9846 10.614 48.4056 9.80594 48.4056ZM22.3588 54.6943C22.3588 56.7966 20.8792 58.5128 18.746 58.5128C16.612 58.5128 15.0991 56.7614 15.0991 54.6591V54.625C15.0991 52.5223 16.5784 50.8061 18.712 50.8061C20.8455 50.8061 22.3588 52.5568 22.3588 54.6591V54.6943ZM18.746 48.3193C15.0303 48.3193 12.3288 51.1736 12.3288 54.6591V54.6943C12.3288 58.1802 14.9955 61 18.712 61C22.4277 61 25.1292 58.1454 25.1292 54.6591V54.6251C25.1292 51.1384 22.4629 48.3193 18.746 48.3193ZM37.0275 48.4242C36.2882 48.4242 35.7031 49.0198 35.7031 49.7726V55.5522C35.7031 57.4967 34.7233 58.4947 33.1056 58.4947C31.4883 58.4947 30.5081 57.4623 30.5081 55.4648V49.7726C30.5081 49.0198 29.923 48.4242 29.1826 48.4242C28.4434 48.4242 27.8586 49.0198 27.8586 49.7726V55.5356C27.8586 59.1434 29.8362 60.9826 33.0708 60.9826C36.3047 60.9826 38.3534 59.1615 38.3534 55.4478V49.7726C38.3534 49.0198 37.7682 48.4242 37.0275 48.4242ZM57.0072 48.4231C56.354 48.4231 55.9062 48.8614 55.7337 49.3867L53.342 56.9012L50.9334 49.4563C50.7273 48.8088 50.2634 48.3887 49.5911 48.3887H49.3854C48.715 48.3887 48.2488 48.8266 48.043 49.4563L45.6345 56.9012L43.2431 49.3867C43.0722 48.8266 42.5731 48.4231 41.9532 48.4231C41.2132 48.4231 40.5932 48.9844 40.5932 49.7375C40.5932 49.8957 40.6456 50.088 40.6969 50.2454L44.0688 59.8788C44.3105 60.5619 44.808 60.9824 45.4452 60.9824H45.7197C46.3573 60.9824 46.8395 60.5801 47.0793 59.8788L49.4542 52.8548L51.8287 59.8788C52.0685 60.5801 52.5511 60.9824 53.1883 60.9824H53.4625C54.0996 60.9824 54.5971 60.5619 54.8385 59.8788L58.2107 50.2454C58.2624 50.088 58.3148 49.8775 58.3148 49.7193C58.3148 48.9844 57.7296 48.4231 57.0072 48.4231ZM68.8125 58.3902H63.3591V55.8153H67.9528C68.606 55.8153 69.1391 55.29 69.1391 54.6251C69.1391 53.959 68.606 53.4159 67.9528 53.4159H63.3591V50.9291H68.7265C69.3808 50.9291 69.9136 50.4031 69.9136 49.7377C69.9136 49.0724 69.3808 48.5294 68.7265 48.5294H62.0515C61.3127 48.5294 60.7272 49.1243 60.7272 49.8778V59.4416C60.7272 60.1947 61.3127 60.7904 62.0515 60.7904H68.8125C69.4661 60.7904 70 60.2647 70 59.5986C70 58.9333 69.4661 58.3902 68.8125 58.3902Z" fill="#FFFFFF"></path><path fill-rule="evenodd" clip-rule="evenodd" d="M66.4274 1.47112C62.7403 -1.12784 57.6827 -0.192538 55.1299 3.56104C55.1299 3.56104 41.3742 23.7845 32.698 36.5399H44.8379C49.6049 36.5399 54.0649 34.1656 56.7794 30.1749L68.4806 12.9728C71.033 9.21965 70.1132 4.06931 66.4274 1.47112ZM4.25305 1.04047C0.00919582 3.45995 -1.1794 8.99825 1.52172 12.9727L16.7869 35.4141C17.912 37.0689 20.3156 37.0677 21.4395 35.4118L25.5931 29.2894C27.6304 26.287 27.6281 22.3133 25.5878 19.3132L15.0713 3.85256C12.657 0.303211 7.95231 -1.06957 4.25305 1.04047ZM42.4022 4.51724L36.9518 12.5501C35.8282 14.206 33.425 14.2075 32.2991 12.5528L26.8357 4.51995C25.5365 2.6095 26.8796 0.000488381 29.1612 0.000488381H40.0751C42.3559 0.000488381 43.6986 2.6068 42.4022 4.51724Z" fill="#E40046"></path></svg>
